<?xml version="1.0" encoding="UTF-8"?>
<svg id="_レイヤー_2" data-name="レイヤー 2" xmlns="http://www.w3.org/2000/svg" viewBox="0 0 552.24 134.49">
  <defs>
    <style>
      .cls-1 {
        fill: #2a9d8f;
      }
    </style>
  </defs>
  <g id="_レイヤー_1-2" data-name="レイヤー 1">
    <g>
      <g>
        <path class="cls-1" d="M202.62,94.99l-13.13-17.31h-10.59v17.31h-13.48v-54.09h28.01c14.44,0,23.11,6.72,23.11,17.85v.16c0,8.73-5.34,14.22-13.13,16.77l14.97,19.32h-15.76ZM202.88,59.36c0-5.1-4.03-7.73-10.59-7.73h-13.39v15.53h13.66c6.57,0,10.33-3.09,10.33-7.65v-.16Z"/>
        <path class="cls-1" d="M249.45,95.91c-14.53,0-25.3-9.5-25.3-21.4v-.15c0-11.9,10.85-21.56,25.47-21.56s25.3,9.5,25.3,21.4v.16c0,11.9-10.85,21.56-25.47,21.56ZM261.79,74.35c0-6.1-4.99-11.44-12.34-11.44s-12.17,5.18-12.17,11.28v.16c0,6.1,4.99,11.44,12.34,11.44s12.17-5.18,12.17-11.28v-.15Z"/>
        <path class="cls-1" d="M307.58,95.91c-14.53,0-25.3-9.5-25.3-21.4v-.15c0-11.9,10.85-21.56,25.47-21.56s25.3,9.5,25.3,21.4v.16c0,11.9-10.85,21.56-25.47,21.56ZM319.92,74.35c0-6.1-4.99-11.44-12.34-11.44s-12.17,5.18-12.17,11.28v.16c0,6.1,4.99,11.44,12.34,11.44s12.17-5.18,12.17-11.28v-.15Z"/>
        <path class="cls-1" d="M400.98,94.99v-23.1c0-5.56-2.8-8.42-7.79-8.42s-8.05,2.86-8.05,8.42v23.1h-13.31v-23.1c0-5.56-2.8-8.42-7.79-8.42s-8.05,2.86-8.05,8.42v23.1h-13.31v-41.42h13.31v5.87c3.06-3.48,7.09-6.64,13.83-6.64,6.13,0,10.77,2.4,13.22,6.57,4.11-4.25,9.02-6.57,15.41-6.57,9.89,0,15.84,5.25,15.84,15.22v26.97h-13.31Z"/>
        <path class="cls-1" d="M426.1,49.01v-10.43h14.01v10.43h-14.01ZM426.45,94.99v-41.42h13.31v41.42h-13.31Z"/>
        <path class="cls-1" d="M481.95,94.99v-23.1c0-5.56-2.98-8.42-8.05-8.42s-8.32,2.86-8.32,8.42v23.1h-13.31v-41.42h13.31v5.87c3.06-3.48,7-6.64,13.74-6.64,10.07,0,15.93,5.87,15.93,15.38v26.81h-13.31Z"/>
        <path class="cls-1" d="M537.01,94.99l-12.26-16.92-4.64,4.33v12.59h-13.31v-56.41h13.31v30.06l15.58-15.07h15.93l-17.86,16.3,18.47,25.11h-15.23Z"/>
      </g>
      <g>
        <rect class="cls-1" y="67.4" width="50.43" height="67.1"/>
        <circle class="cls-1" cx="25.22" cy="25.22" r="25.22"/>
        <path class="cls-1" d="M134.49,50.43C134.49,22.58,111.91,0,84.06,0h-16.81v25.22c13.93,0,25.22,11.29,25.22,25.22s-11.29,25.22-25.22,25.22v36.46l16.81,22.38h50.43l-28.88-38.45c17.07-8.08,28.88-25.46,28.88-45.61Z"/>
      </g>
    </g>
  </g>
</svg>